# xmcd
#
# Track frame offsets: 
#        182
#        9087
#        18060
#        27887
#        37835
#        49735
#        60840
#        73315
#        85597
#        96135
#        105570
#        119852
#        130257
#
# Disc length: 1867 seconds
#
# Revision: 0
# Processed by: cddbd v1.5.1PL2 Copyright (c) Steve Scherf et al.
# Submitted via: ExactAudioCopy v0.95b3
#
DISCID=9707490d
DTITLE=Sam Cooke - 13 Titres Originaux Gold Collection
DYEAR=1991
DGENRE=Soul
TTITLE0=Only Sixteen
TTITLE1=There I've Said It Again
TTITLE2=Stealaway
TTITLE3=Lover Come Back To Me
TTITLE4=Moonlight In Vermont
TTITLE5=Comes Love
TTITLE6=You Send Me
TTITLE7=Win Your Love For Me
TTITLE8=I Love You Most Of All
TTITLE9=Good Morning Heartache
TTITLE10=Talk Of The Town
TTITLE11=The Little Things You Do
TTITLE12=Stealing Kisses
EXTD=
EXTT0=
EXTT1=
EXTT2=
EXTT3=
EXTT4=
EXTT5=
EXTT6=
EXTT7=
EXTT8=
EXTT9=
EXTT10=
EXTT11=
EXTT12=
PLAYORDER=
